<svg width="19" height="16" viewBox="0 0 19 16" fill="none" xmlns="http://www.w3.org/2000/svg">
<g id="cart">
<path id="Vector" opacity="0.4" fill-rule="evenodd" clip-rule="evenodd" d="M3.62692 14.767C3.62692 14.0813 4.25756 13.5261 5.0366 13.5261C5.80636 13.5261 6.43702 14.0813 6.43702 14.767C6.43702 15.4447 5.80636 15.9998 5.0366 15.9998C4.25756 15.9998 3.62692 15.4447 3.62692 14.767ZM14.0604 14.767C14.0604 14.0813 14.6911 13.5261 15.4701 13.5261C16.2399 13.5261 16.8705 14.0813 16.8705 14.767C16.8705 15.4447 16.2399 15.9998 15.4701 15.9998C14.6911 15.9998 14.0604 15.4447 14.0604 14.767Z" fill="black"/>
<path id="Vector_2" fill-rule="evenodd" clip-rule="evenodd" d="M16.8706 3.14257C17.4363 3.14257 17.8073 3.31402 18.1782 3.68956C18.5492 4.0651 18.6141 4.60392 18.5306 5.09294L17.6496 10.4485C17.4827 11.478 16.481 12.2364 15.3032 12.2364H5.18501C3.95153 12.2364 2.93136 11.4037 2.82934 10.3268L1.97613 1.42733L0.575706 1.21506C0.204736 1.15792 -0.0549576 0.839523 0.00996208 0.512965C0.0748818 0.178243 0.436601 -0.0421827 0.816845 0.00680098L3.02873 0.300704C3.34406 0.350504 3.57591 0.578278 3.60373 0.855852L3.77994 2.68457C3.80777 2.94664 4.04891 3.14257 4.34569 3.14257H16.8706ZM11.2504 7.38701H13.8193C14.2088 7.38701 14.5149 7.10943 14.5149 6.77471C14.5149 6.43182 14.2088 6.16241 13.8193 6.16241H11.2504C10.8608 6.16241 10.5548 6.43182 10.5548 6.77471C10.5548 7.10943 10.8608 7.38701 11.2504 7.38701Z" fill="black"/>
</g>
</svg>
