<svg width="19" height="19" viewBox="0 0 19 19" fill="none" xmlns="http://www.w3.org/2000/svg">
<g id="devicon:google">
<path id="Vector" d="M6.61884 0.624927C4.72045 1.2835 3.08327 2.53349 1.9478 4.19129C0.812322 5.84909 0.238393 7.82733 0.310312 9.83542C0.382231 11.8435 1.09621 13.7756 2.34737 15.348C3.59853 16.9203 5.32093 18.0499 7.26158 18.571C8.8349 18.977 10.4833 18.9948 12.065 18.623C13.4979 18.3011 14.8227 17.6127 15.9095 16.625C17.0408 15.5657 17.8619 14.2181 18.2845 12.727C18.7438 11.1056 18.8256 9.40046 18.5235 7.7425H9.68853V11.4074H14.8052C14.7029 11.992 14.4838 12.5498 14.1609 13.0477C13.838 13.5456 13.418 13.9732 12.926 14.3049C12.3012 14.7184 11.5969 14.9965 10.8582 15.1213C10.1174 15.2591 9.35759 15.2591 8.61681 15.1213C7.86594 14.9663 7.15565 14.6564 6.53126 14.2114C5.52805 13.5013 4.77477 12.4924 4.37892 11.3288C3.97649 10.1433 3.97649 8.85819 4.37892 7.67274C4.66069 6.84181 5.1265 6.08525 5.74158 5.45954C6.44546 4.73033 7.33659 4.20909 8.3172 3.95301C9.29781 3.69692 10.33 3.71589 11.3006 4.00782C12.0588 4.24045 12.7521 4.64711 13.3252 5.19532C13.9022 4.62136 14.4781 4.04592 15.0531 3.46899C15.3499 3.15875 15.6735 2.86336 15.966 2.54571C15.091 1.73156 14.064 1.098 12.9438 0.681333C10.9038 -0.0593853 8.6717 -0.0792914 6.61884 0.624927Z" fill="white"/>
<path id="Vector_2" d="M6.61884 0.624916C8.67153 -0.079781 10.9036 -0.0603989 12.9438 0.679838C14.0642 1.09934 15.0907 1.73594 15.9645 2.55312C15.6676 2.87078 15.3544 3.16765 15.0516 3.4764C14.4756 4.05135 13.9002 4.62432 13.3252 5.19531C12.7521 4.64709 12.0588 4.24044 11.3006 4.00781C10.3303 3.71485 9.29816 3.69479 8.31729 3.94983C7.33642 4.20487 6.44474 4.72515 5.74009 5.45359C5.12501 6.0793 4.65921 6.83586 4.37743 7.66679L1.30032 5.28437C2.40174 3.1002 4.30878 1.42948 6.61884 0.624916Z" fill="#E33629"/>
<path id="Vector_3" d="M0.483893 7.64453C0.649163 6.82482 0.923752 6.03101 1.3003 5.28438L4.37741 7.67274C3.97498 8.85819 3.97498 10.1433 4.37741 11.3288C3.3522 12.1204 2.3265 12.916 1.3003 13.7156C0.357945 11.8398 0.0705435 9.70262 0.483893 7.64453Z" fill="#F8BD00"/>
<path id="Vector_4" d="M9.68853 7.74101H18.5235C18.8256 9.39897 18.7438 11.1041 18.2845 12.7255C17.8618 14.2166 17.0408 15.5642 15.9095 16.6235C14.9165 15.8487 13.919 15.0798 12.9259 14.3049C13.4183 13.9728 13.8385 13.5448 14.1614 13.0464C14.4843 12.548 14.7033 11.9895 14.8052 11.4045H9.68853C9.68704 10.1843 9.68853 8.96265 9.68853 7.74101Z" fill="#587DBD"/>
<path id="Vector_5" d="M1.29883 13.7156C2.32503 12.924 3.35073 12.1283 4.37594 11.3288C4.77257 12.4928 5.52693 13.5017 6.53125 14.2114C7.15758 14.6543 7.86941 14.9617 8.62125 15.1139C9.36203 15.2517 10.1219 15.2517 10.8627 15.1139C11.6013 14.9891 12.3057 14.711 12.9304 14.2975C13.9234 15.0723 14.9209 15.8413 15.914 16.6161C14.8273 17.6043 13.5025 18.2933 12.0695 18.6155C10.4877 18.9874 8.83934 18.9696 7.26602 18.5636C6.02167 18.2313 4.85936 17.6456 3.85195 16.8432C2.78577 15.9965 1.9149 14.9297 1.29883 13.7156Z" fill="#319F43"/>
</g>
</svg>
