<svg width="21" height="21" viewBox="0 0 21 21" fill="none" xmlns="http://www.w3.org/2000/svg">
<g id="ant-design:heart-outlined">
<path id="Vector" d="M18.122 6.34345C17.8633 5.74445 17.4902 5.20164 17.0238 4.74542C16.557 4.28783 16.0066 3.92419 15.4026 3.67427C14.7763 3.4141 14.1045 3.28092 13.4263 3.28248C12.4748 3.28248 11.5465 3.54303 10.7397 4.03518C10.5467 4.15291 10.3634 4.28222 10.1897 4.42311C10.016 4.28222 9.83265 4.15291 9.63965 4.03518C8.83291 3.54303 7.90459 3.28248 6.9531 3.28248C6.26796 3.28248 5.60404 3.41372 4.97679 3.67427C4.37078 3.92517 3.82459 4.28608 3.3556 4.74542C2.88854 5.20113 2.51544 5.74406 2.25744 6.34345C1.98917 6.96683 1.85214 7.62882 1.85214 8.31011C1.85214 8.95279 1.98338 9.6225 2.24393 10.3038C2.46202 10.8731 2.77468 11.4637 3.17418 12.0601C3.80722 13.0038 4.67765 13.9881 5.75844 14.9859C7.54947 16.6399 9.32313 17.7825 9.3984 17.8288L9.85581 18.1222C10.0585 18.2515 10.319 18.2515 10.5217 18.1222L10.9791 17.8288C11.0543 17.7806 12.8261 16.6399 14.619 14.9859C15.6998 13.9881 16.5702 13.0038 17.2033 12.0601C17.6028 11.4637 17.9174 10.8731 18.1335 10.3038C18.3941 9.6225 18.5253 8.95279 18.5253 8.31011C18.5272 7.62882 18.3902 6.96683 18.122 6.34345ZM10.1897 16.5955C10.1897 16.5955 3.31893 12.1932 3.31893 8.31011C3.31893 6.34345 4.94591 4.74928 6.9531 4.74928C8.36393 4.74928 9.58754 5.53671 10.1897 6.68698C10.7919 5.53671 12.0155 4.74928 13.4263 4.74928C15.4335 4.74928 17.0605 6.34345 17.0605 8.31011C17.0605 12.1932 10.1897 16.5955 10.1897 16.5955Z" fill="#1E2742" fill-opacity="0.6"/>
</g>
</svg>
