<svg width="31" height="30" viewBox="0 0 31 30" fill="none" xmlns="http://www.w3.org/2000/svg">
<g id="home">
<circle id="Ellipse 5" cx="15.8" cy="15" r="15" fill="black"/>
<g id="home_2">
<path id="Vector" d="M14.1128 21.2024V19.2153C14.1128 18.7077 14.5269 18.2962 15.0378 18.2962H16.9066C17.1516 18.2962 17.3869 18.3931 17.5605 18.5653C17.734 18.7376 17.8315 18.9716 17.8315 19.2153V21.2024C17.8302 21.4137 17.9134 21.6165 18.0629 21.766C18.2131 21.9155 18.4165 22 18.6291 22H19.9038C20.4992 22.0013 21.0705 21.7679 21.4917 21.3506C21.9136 20.9333 22.1502 20.3665 22.1502 19.7757V14.1134C22.1502 13.6356 21.937 13.1832 21.5685 12.8771L17.2322 9.43917C16.4782 8.83661 15.3972 8.85611 14.6653 9.48532L10.4286 12.8771C10.0424 13.1741 9.81169 13.6285 9.79999 14.1134V19.7698C9.79999 21.0016 10.8056 22 12.0464 22H13.2919C13.7332 22 14.092 21.6464 14.0953 21.2083L14.1128 21.2024Z" fill="white"/>
</g>
</g>
</svg>
