<svg width="19" height="19" viewBox="0 0 19 19" fill="none" xmlns="http://www.w3.org/2000/svg">
<g id="ant-design:star-filled">
<path id="Vector" d="M2.24038 7.00189L6.6506 6.36094L8.62208 2.36412C8.67593 2.25469 8.76452 2.16611 8.87395 2.11226C9.14839 1.97677 9.48189 2.08968 9.61912 2.36412L11.5906 6.36094L16.0008 7.00189C16.1224 7.01926 16.2336 7.07658 16.3187 7.16343C16.4216 7.26919 16.4783 7.41147 16.4763 7.55901C16.4744 7.70655 16.4139 7.84729 16.3083 7.95028L13.1174 11.0612L13.8713 15.4541C13.8889 15.5563 13.8776 15.6614 13.8386 15.7575C13.7996 15.8535 13.7345 15.9368 13.6506 15.9977C13.5666 16.0587 13.4673 16.0949 13.3639 16.1022C13.2605 16.1096 13.157 16.0879 13.0653 16.0394L9.1206 13.9655L5.1759 16.0394C5.0682 16.0968 4.94314 16.1159 4.82329 16.095C4.52105 16.0429 4.31782 15.7563 4.36993 15.4541L5.12379 11.0612L1.93293 7.95028C1.84609 7.86517 1.78876 7.754 1.7714 7.63241C1.7245 7.32844 1.93641 7.04705 2.24038 7.00189Z" fill="#F9C83C"/>
</g>
</svg>
