<svg width="24" height="24" viewBox="0 0 24 24" fill="none" xmlns="http://www.w3.org/2000/svg">
<path d="M12.0116 5C9.11805 5 6.77492 7.37012 6.77492 10.297V11.9672C6.77492 12.508 6.55477 13.3193 6.27957 13.7806L5.28099 15.4667C4.66768 16.5086 5.09228 17.6698 6.22453 18.0516C9.98296 19.3161 14.048 19.3161 17.8065 18.0516C18.868 17.6937 19.324 16.437 18.75 15.4667L17.7514 13.7806C17.4762 13.3193 17.2561 12.5001 17.2561 11.9672V10.297C17.2482 7.38602 14.8894 5 12.0116 5Z" stroke="#221F1F" stroke-width="1.5" stroke-miterlimit="10" stroke-linecap="round"/>
<path d="M15.6112 18.8201C15.6112 20.6501 14.1112 22.1501 12.2812 22.1501C11.3712 22.1501 10.5312 21.7701 9.93123 21.1701C9.33123 20.5701 8.95123 19.7301 8.95123 18.8201" stroke="#221F1F" stroke-width="1.5" stroke-miterlimit="10"/>
<rect x="12" y="2" width="10" height="10" rx="5" fill="#FF9900"/>
<path d="M17.0003 9.16C17.3256 9.16 17.5576 9.01067 17.6963 8.712C17.8349 8.41333 17.9043 7.91467 17.9043 7.216C17.9043 6.52267 17.8349 6.02667 17.6963 5.728C17.5576 5.42933 17.3256 5.28 17.0003 5.28C16.6749 5.28 16.4429 5.42933 16.3043 5.728C16.1656 6.02667 16.0963 6.52267 16.0963 7.216C16.0963 7.91467 16.1656 8.41333 16.3043 8.712C16.4429 9.01067 16.6749 9.16 17.0003 9.16ZM17.0003 10.12C16.3229 10.12 15.8029 9.86933 15.4403 9.368C15.0776 8.86667 14.8963 8.14933 14.8963 7.216C14.8963 6.288 15.0776 5.57333 15.4403 5.072C15.8083 4.57067 16.3283 4.32 17.0003 4.32C17.6723 4.32 18.1896 4.57067 18.5523 5.072C18.9203 5.57333 19.1043 6.288 19.1043 7.216C19.1043 8.14933 18.9229 8.86667 18.5603 9.368C18.1976 9.86933 17.6776 10.12 17.0003 10.12Z" fill="white"/>
</svg>
