<svg width="19" height="19" viewBox="0 0 19 19" fill="none" xmlns="http://www.w3.org/2000/svg">
<g id="Group">
<path id="Vector" fill-rule="evenodd" clip-rule="evenodd" d="M15.6378 3.68837C15.7063 3.61009 15.7586 3.51909 15.7919 3.42057C15.8252 3.32204 15.8388 3.21793 15.8318 3.11416C15.8249 3.0104 15.7976 2.90902 15.7514 2.81581C15.7053 2.72261 15.6413 2.6394 15.563 2.57094C15.4847 2.50248 15.3937 2.45011 15.2952 2.41682C15.1966 2.38353 15.0925 2.36997 14.9888 2.37691C14.885 2.38386 14.7836 2.41118 14.6904 2.45731C14.5972 2.50343 14.514 2.56747 14.4455 2.64575L10.4001 7.26908L6.96667 2.69167C6.89293 2.59334 6.7973 2.51354 6.68738 2.45858C6.57745 2.40361 6.45624 2.375 6.33333 2.375H3.16667C3.01965 2.375 2.87553 2.41594 2.75046 2.49323C2.6254 2.57053 2.52433 2.68112 2.45858 2.81262C2.39283 2.94412 2.365 3.09133 2.3782 3.23776C2.3914 3.38419 2.44512 3.52405 2.53333 3.64167L7.62929 10.4358L3.36221 15.3124C3.29375 15.3907 3.24138 15.4817 3.20809 15.5802C3.1748 15.6788 3.16124 15.7829 3.16819 15.8866C3.17513 15.9904 3.20245 16.0918 3.24858 16.185C3.2947 16.2782 3.35874 16.3614 3.43702 16.4299C3.51531 16.4983 3.60631 16.5507 3.70483 16.584C3.80335 16.6173 3.90747 16.6308 4.01123 16.6239C4.115 16.6169 4.21638 16.5896 4.30958 16.5435C4.40279 16.4974 4.486 16.4333 4.55446 16.355L8.59988 11.7309L12.0333 16.3083C12.1071 16.4067 12.2027 16.4865 12.3126 16.5414C12.4226 16.5964 12.5438 16.625 12.6667 16.625H15.8333C15.9804 16.625 16.1245 16.5841 16.2495 16.5068C16.3746 16.4295 16.4757 16.3189 16.5414 16.1874C16.6072 16.0559 16.635 15.9087 16.6218 15.7622C16.6086 15.6158 16.5549 15.476 16.4667 15.3583L11.3707 8.56425L15.6378 3.68837ZM13.0625 15.0417L4.75 3.95833H5.9375L14.25 15.0417H13.0625Z" fill="black"/>
</g>
</svg>
